<svg xmlns="http://www.w3.org/2000/svg" viewBox="0 0 16 16" shape-rendering="crispEdges" ><rect x="9" y="1" width="4" height="1" fill="#f2f0ec"/><rect x="8" y="2" width="6" height="1" fill="#f2f0ec"/><rect x="8" y="3" width="3" height="1" fill="#f2f0ec"/><rect x="11" y="3" width="1" height="1" fill="#1c1c20"/><rect x="12" y="3" width="2" height="1" fill="#f2f0ec"/><rect x="8" y="4" width="6" height="1" fill="#f2f0ec"/><rect x="14" y="4" width="2" height="1" fill="#e0913c"/><rect x="8" y="5" width="5" height="1" fill="#f2f0ec"/><rect x="13" y="5" width="1" height="1" fill="#b06f2c"/><rect x="14" y="5" width="1" height="1" fill="#e0913c"/><rect x="9" y="6" width="4" height="1" fill="#f2f0ec"/><rect x="9" y="7" width="4" height="1" fill="#f2f0ec"/><rect x="0" y="8" width="2" height="1" fill="#f2f0ec"/><rect x="7" y="8" width="6" height="1" fill="#f2f0ec"/><rect x="0" y="9" width="2" height="1" fill="#f2f0ec"/><rect x="5" y="9" width="8" height="1" fill="#f2f0ec"/><rect x="0" y="10" width="13" height="1" fill="#f2f0ec"/><rect x="1" y="11" width="12" height="1" fill="#f2f0ec"/><rect x="2" y="12" width="10" height="1" fill="#f2f0ec"/><rect x="12" y="12" width="1" height="1" fill="#c9c5bc"/><rect x="4" y="13" width="7" height="1" fill="#f2f0ec"/><rect x="11" y="13" width="1" height="1" fill="#c9c5bc"/><rect x="5" y="14" width="1" height="1" fill="#e0913c"/><rect x="9" y="14" width="1" height="1" fill="#e0913c"/></svg>